<?xml version="1.0" encoding="UTF-8"?>
<svg width="24" height="24" viewBox="0 0 24 24" fill="none" xmlns="http://www.w3.org/2000/svg">
  <path d="M12 2C8.13 2 5 5.13 5 9c0 5.25 7 13 7 13s7-7.75 7-13c0-3.87-3.13-7-7-7zM7 9c0-2.76 2.24-5 5-5s5 2.24 5 5c0 2.88-2.88 7.19-5 9.88C9.92 16.21 7 11.85 7 9z" fill="#4285F4"/>
  <path d="M12 11.5c1.38 0 2.5-1.12 2.5-2.5S13.38 6.5 12 6.5 9.5 7.62 9.5 9s1.12 2.5 2.5 2.5z" fill="#4285F4"/>
  <circle cx="12" cy="9" r="2" fill="white"/>
  <path d="M10 14h4v2h-4z" fill="#4285F4"/>
</svg>